<svg xmlns="http://www.w3.org/2000/svg" viewBox="0 0 827.18 376.7"><g id="Layer_2" data-name="Layer 2"><g id="Layer_3" data-name="Layer 3"><g id="WXi20V.tif"><path d="M413.3,376.7H4.79C0,376.7,0,376.7,0,372V176.48c0-.84,0-1.67,0-2.5,0-1.57.67-2.31,2.26-2.21.83,0,1.67,0,2.5,0H822.28c5.29,0,4.9-.45,4.9,4.81V372.09c0,.92,0,1.84,0,2.75,0,1.25-.66,1.81-1.86,1.83s-2.16,0-3.25,0Zm128.62-21c14.8-.06,28.07-2.36,40.64-8.1,20-9.12,34.12-23.79,41.63-44.49,6.19-17.06,6.68-34.53,2.26-52.06-4.68-18.55-15.21-33.14-31.09-43.72-15.36-10.23-32.6-14.44-50.85-14.77a101.41,101.41,0,0,0-29.13,3.64c-13,3.64-24.79,9.68-34.66,19-15.23,14.42-22.52,32.5-23.72,53.13a84.54,84.54,0,0,0,6.37,38.32,75.9,75.9,0,0,0,28.48,34.54C507.37,351.46,524.6,355.61,541.92,355.71ZM795,274.34c0-24.72,0-49.43.05-74.15,0-2.52-.71-3.27-3.25-3.25q-21.24.17-42.47,0c-2.57,0-3.29.79-3.2,3.28.42,11.39.68,22.78,1,34.17q.54,19.45,1.05,38.91c0,.69.32,1.68-.57,2-1.08.37-1.37-.7-1.76-1.38q-9.17-16.17-18.3-32.37-12-21.18-23.93-42.38a3.57,3.57,0,0,0-3.48-2.2q-23.37.11-46.72,0c-2.13,0-2.67.77-2.67,2.77q.06,74.54,0,149.06c0,2.26.78,2.8,2.9,2.78,14.49-.07,29,0,43.47,0h1.25c1.18,0,1.57-.52,1.51-1.71-.28-5.23-.54-10.46-.69-15.69q-.8-27.32-1.5-54.62c0-.73-.14-1.64.81-1.87s1.09.6,1.42,1.15c2.12,3.58,4.24,7.16,6.33,10.75q17.37,29.89,34.7,59.8a4,4,0,0,0,4,2.24c15.49-.07,31,0,46.47,0,3.59,0,3.6,0,3.6-3.52Zm-442.66,0V201.15c0-4.16,0-4.16-4.27-4.16H307.62c-4.12,0-4.21,0-4.09,4,.43,13.88.94,27.75,1.38,41.63.32,10.14.59,20.28.87,30.43,0,.81.25,1.89-.65,2.23-1.23.47-1.47-.84-1.87-1.55-3.76-6.57-7.46-13.17-11.19-19.77q-15.4-27.27-30.78-54.56a4.13,4.13,0,0,0-4.12-2.45q-22.86.12-45.71,0c-2.51,0-3.05.91-3.05,3.21q.08,74.15,0,148.3c0,2.38.69,3.14,3.11,3.12q21.36-.15,42.72,0c2.43,0,3.14-.7,3-3.11-.41-9.31-.63-18.62-.93-27.93-.29-9-.58-17.95-.92-26.93-.17-4.65.09-9.32-.44-14-.09-.77-.21-1.83.9-2.05.91-.18,1.22.71,1.6,1.33.92,1.49,1.8,3,2.68,4.5q19.14,32.91,38.2,65.84a4.1,4.1,0,0,0,4.17,2.3c15.41-.06,30.81,0,46.22,0,3.59,0,3.6,0,3.6-3.56ZM35.62,247.5c0,14.15,0,28.3,0,42.44A75.26,75.26,0,0,0,40,316.13a52.89,52.89,0,0,0,12.87,20.26c10.51,10.22,23.22,16,37.62,18,19.2,2.71,38.06,1.86,55.92-6.67A57.92,57.92,0,0,0,174,320.93c5.06-10.06,6.79-20.8,6.81-31.89.05-29.63,0-59.25.07-88.87,0-2.54-.73-3.25-3.25-3.23-14.82.11-29.64.05-44.46.05-3.64,0-3.65,0-3.65,3.77q0,41.69,0,83.38a38.73,38.73,0,0,1-.51,6.46c-1.34,8-4.8,14.45-13,17.42-9.17,3.32-20,.17-24.87-7.48-2.89-4.5-3.74-9.55-3.74-14.79V200.62c0-3.63,0-3.63-3.74-3.63H38.91c-3.28,0-3.29,0-3.29,3.33Q35.61,223.92,35.62,247.5Zm398.65,26.77c0-24.72,0-49.44,0-74.16,0-2.33-.62-3.18-3.08-3.17q-22.86.15-45.72,0c-2.57,0-3.23.81-3.23,3.29q.09,74,0,148.06c0,2.46.63,3.31,3.22,3.29,15.07-.11,30.14-.05,45.22-.06,3.54,0,3.55,0,3.55-3.59Z"/><path d="M109,61.55c-1.26,4.19-2.48,8.22-3.67,12.25q-7.56,25.74-15.11,51.49c-2.29,7.82-4.63,15.62-6.83,23.47-.58,2.08-1.7,2.71-3.76,2.7q-16.86-.12-33.73,0c-2,0-3-.55-3.58-2.55-3.58-12.82-7.26-25.61-10.92-38.4q-6-21-12-42-6.27-22-12.52-43.92c-2-7-4-14.08-6-21.11C0,.38.08.1,3.2.1c12.74,0,25.48,0,38.22,0,2.1,0,3.17.68,3.66,2.78Q50.32,25.31,55.7,47.76c2.57,10.76,5.2,21.5,7.8,32.25.56,2.34,1.1,4.68,1.81,7.67,1.62-5.9,3.1-11.17,4.52-16.45q5.27-19.52,10.47-39C82.9,22.47,85.56,12.76,88,3,88.59.82,89.55,0,91.79.05q17.73.14,35.48,0c2.25,0,3.22.84,3.79,3q10.71,40,21.57,80a8.89,8.89,0,0,0,1.25,3.51c1.09-.94,1-2.19,1.3-3.26q9-36.72,17.85-73.47c.6-2.5,1.23-5,1.77-7.52A2.49,2.49,0,0,1,177.63.08q19.11,0,38.22,0c2.26,0,2.45,1,1.93,2.83-2.61,9-5.15,18.08-7.73,27.12Q202.53,56.43,195,82.81q-6.08,21.24-12.21,42.45c-2.21,7.68-4.49,15.33-6.58,23-.63,2.33-1.73,3.19-4.18,3.17q-16.61-.16-33.22,0c-2.24,0-3.17-.79-3.79-2.93-4.84-16.79-9.82-33.53-14.73-50.29-3.35-11.41-6.65-22.84-10-34.25A3.6,3.6,0,0,0,109,61.55Z"/><path d="M554.19,75.77q0-35.82,0-71.64c0-4,0-4,4-4,18.9,0,37.8-.26,56.7.09,12.12.23,24,2.09,34.88,8.19,12.74,7.18,19.93,18,21.46,32.56,1,9.49-.1,18.62-4.61,27.12-4.68,8.82-12,14.81-21,18.73-2.08.9-2.36,1.62-1.15,3.58q17.63,28.56,35.06,57.23c.62,1,2.18,2,1.45,3.2s-2.45.61-3.72.61c-13.49,0-27,0-40.47.08a5,5,0,0,1-5.13-2.95c-7-12.95-14.1-25.85-21.17-38.76-2.48-4.52-4.95-9-7.45-13.57-1.09-2-5.41-3.14-7.43-2-1.23.69-.77,1.92-.77,2.93,0,16.06,0,32.12,0,48.18,0,6.77,1.06,6.09-6.09,6.11q-15.37,0-30.73,0c-3.7,0-3.81-.11-3.81-3.76Q554.19,111.72,554.19,75.77ZM594.77,48.1c0,3.66.12,7.33,0,11-.11,2.37.84,3,3.06,3,3.9-.13,7.82,0,11.73,0a34.77,34.77,0,0,0,13-2.21c5.56-2.22,8.31-6.57,8.07-13-.19-5.2-3.33-8.89-9-10.57-8.32-2.46-16.86-1.35-25.32-1.53-1.42,0-1.44,1.11-1.44,2.14Q594.77,42.5,594.77,48.1Z"/><path d="M524.94,151.42c-6.66,0-13.33,0-20,0a3.26,3.26,0,0,1-3.54-2.38c-3.07-7.9-6.3-15.75-9.37-23.66a3.4,3.4,0,0,0-3.7-2.5q-23.23.11-46.46,0c-2.13,0-3,.77-3.73,2.72-2.83,7.91-5.88,15.74-8.8,23.62a2.8,2.8,0,0,1-2.91,2.17q-20.24,0-40.46,0c-2.22,0-2.23-1-1.5-2.67,5.06-11.95,10-23.92,15.07-35.88Q409.27,89.76,419,66.65T438.6,20.22c2.49-5.9,5-11.79,7.38-17.74a3.25,3.25,0,0,1,3.5-2.42q16.61.09,33.22,0a3.29,3.29,0,0,1,3.53,2.38q16.26,39.18,32.64,78.3,14.07,33.73,28.07,67.49c1.22,2.94,1,3.17-2.27,3.18Q534.8,151.44,524.94,151.42Zm-59.2-99.35c-.4.33-.59.4-.64.53q-6.36,16.92-12.69,33.84c-.63,1.68.18,2,1.65,2,7.48,0,15,0,22.45,0,2,0,2.18-.81,1.56-2.47-1.89-5.06-3.66-10.16-5.51-15.24C470.33,64.61,468.07,58.46,465.74,52.07Z"/><path d="M688.05,75.85V3.7c0-3.56.05-3.61,3.65-3.61h96.67c3.58,0,3.73.15,3.74,3.59q0,14.61,0,29.21c0,3.06-.16,3.22-3.27,3.22h-57c-3.63,0-3.63,0-3.63,3.52q0,6.73,0,13.48c0,3.88,0,3.88,3.77,3.88h52.71c3.92,0,3.92,0,3.93,3.83q0,13.73,0,27.46c0,3.07-.14,3.22-3.27,3.22H731.66c-3.41,0-3.42,0-3.42,3.49,0,5.66.09,11.32,0,17-.06,2.32.74,3,3,3,20.15-.07,40.3,0,60.45,0,4.05,0,4.06,0,4.06,3.93,0,9.82-.07,19.64,0,29.46,0,2.44-.85,3.14-3.19,3.14q-50.71-.08-101.42,0c-2.42,0-3.13-.85-3.13-3.21C688.08,124.12,688.05,100,688.05,75.85Z"/><path d="M227.27,75.5q0-36,0-71.91c0-3.42.06-3.49,3.49-3.5h96.68c3.49,0,3.55.07,3.55,3.43q0,14.61,0,29.21c0,3.3-.06,3.37-3.33,3.38H271c-3.56,0-3.56,0-3.57,3.63,0,4.58,0,9.16,0,13.74,0,3.49,0,3.51,3.45,3.51h52c.75,0,1.5,0,2.25,0,2.05-.16,2.82.79,2.8,2.8-.06,5.83,0,11.65,0,17.48,0,3.66,0,7.32,0,11,0,3-.29,3.25-3.33,3.25H272.28c-5.26,0-4.88-.43-4.89,4.82,0,5.08,0,10.15,0,15.23,0,3.3.07,3.37,3.35,3.37h59.7c4.43,0,4.43,0,4.43,4.39q0,14.35,0,28.72c0,3.16-.23,3.38-3.44,3.38q-50.46,0-100.93,0c-3.09,0-3.22-.15-3.22-3.26Q227.27,111.83,227.27,75.5Z"/><path d="M573.84,272.6c.46,11.19-2.72,20.44-10.52,27.81-12.43,11.75-33,10.22-43.75-3.16s-10.46-35,.64-47.89a27.64,27.64,0,0,1,19-9.5c13.37-1.22,24,3.63,30.77,15.55A29.63,29.63,0,0,1,573.84,272.6Z"/></g></g></g></svg>